# Blender v2.73 (sub 0) OBJ File: ''
# www.blender.org
mtllib frame.mtl
o Cube
v -45.918106 3.834877 42.737202
v -45.918106 3.834877 44.737202
v -47.918106 3.834877 44.737202
v -47.918106 3.834877 42.737202
v -45.918106 33.834877 42.737202
v -45.918106 33.834877 44.737202
v -47.918106 33.834877 44.737202
v -47.918106 33.834877 42.737202
v -45.918083 3.835186 -56.262798
v -47.918083 3.835186 -56.262798
v -45.918083 33.835186 -56.262798
v -47.918083 33.835186 -56.262798
v 53.081894 3.834943 42.737228
v 53.081894 3.834943 44.737228
v 53.081894 33.834942 42.737228
v 53.081894 33.834942 44.737232
v 51.015266 33.834938 42.737228
v 51.015266 33.834938 44.737228
v 51.015266 3.834940 44.737228
v 51.015266 3.834940 42.737228
v -47.918095 33.835030 -54.304913
v -45.918095 33.835030 -54.304913
v -47.918095 3.835032 -54.304913
v -45.918095 3.835032 -54.304913
v 53.081917 3.834832 -56.262203
v 53.081917 33.834831 -56.262203
v 53.081909 33.834679 -54.304317
v 53.081909 3.834677 -54.304317
v 53.081924 3.835294 -55.262768
v 53.081924 33.835293 -55.262768
v 51.015297 33.835293 -55.262768
v 51.015297 3.835292 -55.262768
vt 0.277551 1.858756
vt 0.277551 1.886205
vt 0.258858 1.886205
vt 0.277551 0.472550
vt 0.277551 0.500000
vt 0.258859 0.500000
vt -0.647111 0.500000
vt -0.666426 0.500000
vt -0.666426 0.472550
vt 0.838332 -0.858755
vt 0.838332 -0.886205
vt 1.118721 -0.886205
vt 0.557942 0.472551
vt 0.258859 -0.859334
vt 0.258858 -0.886205
vt 0.277551 -0.886205
vt 0.838332 0.472550
vt 0.838332 0.500000
vt 0.557942 0.500001
vt 0.277553 -0.859334
vt 0.557941 -0.886205
vt 0.838332 1.858759
vt 0.557942 1.858757
vt -0.648127 1.858756
vt -0.648127 1.886205
vt -0.666426 1.886205
vt 0.277552 0.527452
vt 0.838332 0.471636
vt 1.118721 0.471636
vt 1.118721 0.500000
vt 0.838332 1.845031
vt 0.258858 0.528364
vt 0.258858 1.858756
vt 0.277551 0.528364
vt 1.118721 1.776071
vt 1.118721 0.445679
vt 1.399111 0.445680
vt 1.118721 -0.858756
vt -0.647111 0.472550
vt 1.399111 -0.886205
vt 0.557942 -0.859333
vt 0.258859 0.472550
vt 1.399111 -0.062717
vt 1.399111 -0.474461
vt 1.417410 -0.474459
vt -0.666426 1.858756
vt -0.666426 -0.859326
vt -0.666426 -0.886197
vt 1.418426 -0.474461
vt -0.657080 0.528364
vt -0.657080 0.500000
vt -0.666426 -0.872480
vt -0.647111 -0.872480
vt 0.557941 0.527450
vt 0.557941 1.872481
vt 1.118721 1.845032
vt 1.399111 1.776071
vt 1.417410 -0.062715
vt -0.648122 0.500000
vt 1.418426 -0.886205
vt 0.277551 1.872482
vn 0.000000 -1.000000 0.000000
vn 0.000000 1.000000 0.000000
vn 0.000000 0.000000 1.000000
vn -1.000000 0.000000 0.000000
vn 0.000000 1.000000 0.000100
vn 0.000000 0.000000 -1.000000
vn 0.000000 -1.000000 -0.000100
vn 1.000000 -0.000000 0.000000
usemtl Material
s off
f 2/1/1 3/2/1 4/3/1
f 8/4/2 7/5/2 6/6/2
f 18/7/2 16/8/2 15/9/2
f 6/10/3 7/11/3 3/12/3
f 7/5/4 8/4/4 4/13/4
f 22/14/5 11/15/5 12/16/5
f 9/17/6 10/18/6 12/19/6
f 21/20/4 12/16/4 10/21/4
f 24/18/3 28/22/3 27/23/3
f 24/24/7 23/25/7 10/26/7
f 15/27/8 16/5/8 14/19/8
f 18/28/3 19/29/3 14/30/3
f 17/31/4 31/18/4 32/30/4
f 20/32/1 13/6/1 14/5/1
f 1/33/1 20/32/1 19/34/1
f 5/35/6 17/36/6 20/37/6
f 6/10/3 2/38/3 19/29/3
f 6/6/2 18/7/2 17/39/2
f 4/3/1 23/25/1 24/24/1
f 5/12/8 1/40/8 24/37/8
f 8/4/4 21/20/4 23/41/4
f 5/42/2 22/14/2 21/20/2
f 27/43/8 28/44/8 25/45/8
f 24/24/7 9/46/7 25/8/7
f 22/14/5 27/47/5 26/48/5
f 9/17/6 11/13/6 26/21/6
f 31/49/6 30/44/6 29/40/6
f 20/32/1 32/50/1 29/51/1
f 15/9/2 30/52/2 31/53/2
f 15/27/8 13/54/8 29/55/8
f 1/33/1 2/1/1 4/3/1
f 5/42/2 8/4/2 6/6/2
f 17/39/2 18/7/2 15/9/2
f 2/38/3 6/10/3 3/12/3
f 3/19/4 7/5/4 4/13/4
f 21/20/5 22/14/5 12/16/5
f 11/13/6 9/17/6 12/19/6
f 23/41/4 21/20/4 10/21/4
f 22/19/3 24/18/3 27/23/3
f 9/46/7 24/24/7 10/26/7
f 13/54/8 15/27/8 14/19/8
f 16/18/3 18/28/3 14/30/3
f 20/56/4 17/31/4 32/30/4
f 19/34/1 20/32/1 14/5/1
f 2/1/1 1/33/1 19/34/1
f 1/57/6 5/35/6 20/37/6
f 18/28/3 6/10/3 19/29/3
f 5/42/2 6/6/2 17/39/2
f 1/33/1 4/3/1 24/24/1
f 22/36/8 5/12/8 24/37/8
f 4/13/4 8/4/4 23/41/4
f 8/4/2 5/42/2 21/20/2
f 26/58/8 27/43/8 25/45/8
f 28/59/7 24/24/7 25/8/7
f 11/15/5 22/14/5 26/48/5
f 25/11/6 9/17/6 26/21/6
f 32/60/6 31/49/6 29/40/6
f 13/6/1 20/32/1 29/51/1
f 17/39/2 15/9/2 31/53/2
f 30/61/8 15/27/8 29/55/8
